PathFileType	4	(X/Y/Z)	C:\Users\Basilio\Documents\Thesis Gigler\squatting_fais\c3dfiles\077\SLS_back_pre5\markers_experimental.trc
DataRate	CameraRate	NumFrames	NumMarkers	Units	OrigDataRate	OrigDataStartFrame	OrigNumFrames
200.000000	200.000000	4	60	mm	200.000000	1380	1578
Frame#	Time	FHD			RBHD			C7			T10			CLAV			LSHO			LUUPA			LMUPA			LDUPA			LLEP			LMEP			LRAD			LUL			LRFIN			RSHO			RUPA1			RMUPA			RDUPA			RLEP			RMEP			RRAD			RUL			RUFIN			LASI			RASI			USACR			LSACR			RSACR			LTHI1			LTHI2			LTHI3			LTHI4			LLFC			LMFC			LTIB1			LTIB2			LTIB3			LTIB4			LLMAL			LHEE			LMT1			LMT2			LMT5			RTHI			RTHI2			RTHI3			RTHI4			RLFC			RMFC			RTIB1			RTIB2			RTIB3			RTIB4			RLMAL			RMMAL			RHEE			RMT1			RMT2			RMT5			LBHD			
		X1	Y1	Z1	X2	Y2	Z2	X3	Y3	Z3	X4	Y4	Z4	X5	Y5	Z5	X6	Y6	Z6	X7	Y7	Z7	X8	Y8	Z8	X9	Y9	Z9	X10	Y10	Z10	X11	Y11	Z11	X12	Y12	Z12	X13	Y13	Z13	X14	Y14	Z14	X15	Y15	Z15	X16	Y16	Z16	X17	Y17	Z17	X18	Y18	Z18	X19	Y19	Z19	X20	Y20	Z20	X21	Y21	Z21	X22	Y22	Z22	X23	Y23	Z23	X24	Y24	Z24	X25	Y25	Z25	X26	Y26	Z26	X27	Y27	Z27	X28	Y28	Z28	X29	Y29	Z29	X30	Y30	Z30	X31	Y31	Z31	X32	Y32	Z32	X33	Y33	Z33	X34	Y34	Z34	X35	Y35	Z35	X36	Y36	Z36	X37	Y37	Z37	X38	Y38	Z38	X39	Y39	Z39	X40	Y40	Z40	X41	Y41	Z41	X42	Y42	Z42	X43	Y43	Z43	X44	Y44	Z44	X45	Y45	Z45	X46	Y46	Z46	X47	Y47	Z47	X48	Y48	Z48	X49	Y49	Z49	X50	Y50	Z50	X51	Y51	Z51	X52	Y52	Z52	X53	Y53	Z53	X54	Y54	Z54	X55	Y55	Z55	X56	Y56	Z56	X57	Y57	Z57	X58	Y58	Z58	X59	Y59	Z59	X60	Y60	Z60	

1381	6.9	-213.7200622558594	1856.123046875	-1053.181396484375	-365.9910278320313	1753.262939453125	-974.985778808594	-413.7919921875001	1606.767578125	-1052.535766601563	-424.7675781250001	1278.790649414063	-1007.359191894531	-249.5533142089844	1564.343627929688	-1048.50341796875	-289.3617858886719	1592.064453125	-1220.333984375	-129.4998168945313	1556.8359375	-1328.828979492188	-102.2042541503907	1590.46435546875	-1303.594482421875	-61.9898147583008	1562.896240234375	-1339.381591796875	2.039048433303833	1578.795043945313	-1337.235229492188	15.83778190612793	1510.258666992188	-1313.320434570313	292.3005065917969	1641.439697265625	-1230.516845703125	296.4582824707032	1640.8408203125	-1310.336181640625	393.119842529297	1667.183471679688	-1245.12646484375	-276.7130126953126	1615.565185546875	-889.3880004882815	-127.5540237426758	1583.138916015625	-766.1542968750001	-99.33594512939456	1610.257934570313	-797.6350097656252	-57.91183090209962	1586.0439453125	-759.0581665039064	9.23838520050049	1592.838745117188	-765.5873413085939	16.66313743591309	1518.76416015625	-789.637878417969	nan	nan	nan	303.2627258300782	1636.969604492188	-804.0571899414065	382.6632385253907	1652.818481445313	-888.649108886719	-254.2700805664063	1057.815063476563	-1129.172729492188	-244.5190429687501	1095.777587890625	-848.5980224609377	-441.1141967773439	1179.8857421875	-992.7434082031252	-451.1384582519532	1149.753784179688	-1019.939819335938	-451.756072998047	1149.88427734375	-964.3117675781252	-347.7472229003907	855.5268554687502	-1170.3134765625	-327.3902893066407	774.1895751953127	-1168.697998046875	-278.6097412109376	770.5552978515627	-1169.493041992188	-357.9627685546876	726.9107055664064	-1145.837768554688	-344.0175476074219	577.8857421875001	-1122.452026367188	-318.8826293945313	557.4805908203126	-989.9075927734377	-294.8310852050782	360.4023742675782	-1059.828491210938	-332.6518859863282	313.8806457519532	-1126.810302734375	-297.2577209472657	314.0195617675782	-1096.541748046875	-293.3876953125001	235.1357116699219	-1065.620971679688	-348.8924865722657	109.6484375	-1100.120971679688	-397.1198730468751	81.16446685791017	-1045.605224609375	-188.2104187011719	59.96423339843751	-1026.064697265625	-182.7586517333985	57.33644485473634	-1068.7197265625	-313.0732116699219	127.1660461425782	-1020.144287109375	-369.4323730468751	767.4299926757814	-784.8929443359377	-338.6204223632813	709.1560668945314	-773.727233886719	-304.1496582031251	707.8206787109376	-772.9144287109377	-368.4078674316407	635.5220336914064	-791.5677490234377	-365.8713989257813	566.3203125000001	-786.5918579101565	-314.7715148925782	542.0493774414064	-907.822692871094	-303.7115783691407	434.3992614746095	-784.2515258789065	-362.8121948242188	351.3801879882813	-751.7268676757814	-317.1296691894532	350.1697387695313	-765.3477172851564	-302.1490173339844	303.6931762695313	-798.6815185546877	-354.4500732421876	120.4928894042969	-749.4254150390626	-317.2063598632813	125.6478805541992	-834.8262939453127	-407.8726196289064	83.74365997314455	-807.4542236328127	-184.6498718261719	63.8250198364258	-780.3829345703127	-192.5170288085938	63.1963577270508	-742.6180419921876	-214.5443878173829	42.88605499267579	-697.7342529296876	-360.4751281738282	1756.014282226563	-1121.456176757813	
1382	6.905	-213.1531982421876	1855.429565429688	-1052.140625	-366.0786743164063	1752.705810546875	-974.272644042969	-413.9117126464845	1606.616821289063	-1051.953369140625	-424.8432617187501	1278.624633789063	-1006.690795898438	-249.8811187744141	1564.252319335938	-1047.781494140625	-289.5086669921876	1591.944091796875	-1219.566650390625	-129.6203918457032	1557.042846679688	-1328.101806640625	-102.1911087036133	1590.31201171875	-1302.664672851563	-62.11798095703126	1563.106689453125	-1338.664672851563	2.017750024795533	1578.891357421875	-1336.27783203125	15.73436355590821	1510.397094726563	-1312.573974609375	292.1300354003907	1641.728271484375	-1229.781372070313	296.1195373535157	1641.133666992188	-1309.571411132813	393.008270263672	1667.655151367188	-1244.317016601563	-276.9194030761719	1615.547607421875	-888.5943603515627	-127.6642532348633	1583.081176757813	-765.2821044921876	-99.448600769043	1610.162109375	-796.794616699219	-58.1114845275879	1585.898559570313	-758.3148193359376	9.051110267639162	1592.868286132813	-764.8319091796876	16.65483474731446	1518.79931640625	-788.897644042969	nan	nan	nan	303.1237487792969	1636.9423828125	-803.3168945312502	382.3559570312501	1652.657470703125	-887.9802246093752	-254.3103942871094	1057.905883789063	-1128.661010742188	-244.3015136718751	1095.63818359375	-847.881286621094	-441.0578613281251	1179.797607421875	-991.9905395507815	-450.9859008789064	1149.788208007813	-1019.23828125	-451.6050415039064	1149.749877929688	-963.6833496093752	-347.7123718261719	855.7695922851565	-1170.210815429688	-328.2250671386719	774.6174926757815	-1168.49609375	-278.4793395996094	770.594421386719	-1168.957275390625	-357.9760742187501	726.9980468750001	-1145.45947265625	-344.3499450683594	578.0480346679689	-1122.10009765625	-319.0219421386719	557.2619628906251	-989.5822753906252	-294.8903808593751	360.4311523437501	-1059.703735351563	-332.6686401367188	313.9279174804688	-1126.643920898438	-297.3449096679688	313.9366149902344	-1096.356323242188	-293.4269714355469	235.2148437500001	-1065.545288085938	-349.6784362792969	110.0736999511719	-1100.14404296875	-397.126678466797	81.1570510864258	-1045.614868164063	-188.2307281494141	59.91300582885744	-1026.094604492188	-182.8642120361328	57.37844085693361	-1068.854614257813	-313.0462036132813	127.2115097045899	-1020.126647949219	-369.2877502441407	767.4298095703126	-784.5347900390627	-338.4900512695313	709.0584716796876	-773.4050292968752	-304.0400695800782	707.6198730468751	-772.5977783203127	-368.4352416992188	635.4702148437501	-791.235778808594	-365.9168395996094	566.2702636718751	-786.2925415039065	-314.5975036621094	541.9059448242189	-907.5076293945315	-303.8098144531251	434.3965148925782	-784.043151855469	-362.8455200195313	351.3285522460938	-751.5626831054689	-317.1436462402344	350.0270080566407	-765.1657104492189	-302.3062133789063	303.6748962402344	-798.5512695312502	-354.4743957519532	120.4233779907227	-749.3385620117189	-317.2301025390626	125.5708999633789	-834.7429199218752	-407.8772583007814	83.71121215820314	-807.3704223632815	-184.7417449951172	63.69576263427736	-780.3457641601565	-192.5596160888672	63.10864639282228	-742.5476074218751	-214.5482025146485	42.80936813354493	-697.6940917968751	-360.1742858886719	1756.255493164063	-1120.641967773438	
1383	6.91	-212.9549407958985	1855.523193359375	-1051.426025390625	-366.0664672851563	1752.795043945313	-973.5923461914065	-414.0299682617189	1606.490234375	-1051.189697265625	-424.7689514160157	1278.7099609375	-1005.984436035156	-250.1043243408204	1564.27197265625	-1047.03173828125	-289.4898071289063	1591.934936523438	-1218.915283203125	-129.7412872314453	1557.0439453125	-1327.23583984375	-102.208740234375	1590.364013671875	-1301.89990234375	-62.33071136474611	1563.1943359375	-1337.858032226563	1.912996649742127	1578.914794921875	-1335.390869140625	15.7693567276001	1510.400268554688	-1311.659545898438	292.1285095214844	1642.0615234375	-1229.023803710938	295.8943481445313	1641.34716796875	-1308.829223632813	392.120819091797	1667.539794921875	-1243.185791015625	-277.1264953613282	1615.575439453125	-887.8513183593752	-127.9454879760742	1582.877685546875	-764.4464721679689	-99.549186706543	1610.064331054688	-795.952575683594	-58.33025360107423	1585.83544921875	-757.5867919921876	8.905387878417971	1592.893310546875	-764.1098632812501	16.51199531555176	1518.757568359375	-788.0090942382815	nan	nan	nan	302.5144348144532	1636.607177734375	-802.9660644531252	382.2193603515626	1652.666748046875	-887.0872802734377	-254.235336303711	1058.088745117188	-1128.203491210938	-244.0139312744141	1095.716064453125	-847.3000488281252	-440.7919921875001	1179.824951171875	-991.295837402344	-450.9258422851564	1149.7021484375	-1018.57763671875	-451.4731445312501	1149.610229492188	-962.9868774414065	-347.8235473632813	855.954040527344	-1169.698364257813	-328.1219787597657	774.3206787109377	-1168.0986328125	-278.5506896972657	770.6439208984377	-1168.441040039063	-357.8988342285157	726.9135742187501	-1145.0771484375	-344.2847900390626	577.9415893554689	-1121.628662109375	-319.0950317382813	557.2402954101564	-989.2211914062502	-294.9494018554688	360.5536804199219	-1059.547241210938	-333.1249694824219	313.8669128417969	-1126.209838867188	-297.4280700683594	313.8268127441407	-1096.26513671875	-293.5083007812501	235.2735900878907	-1065.5361328125	-348.9018859863282	109.7393798828125	-1100.043212890625	-397.1435852050782	81.21264648437501	-1045.611694335938	-188.1864166259766	59.9295120239258	-1026.082397460938	-182.7575988769532	57.33884048461915	-1068.73681640625	-313.0853881835938	127.1283493041992	-1020.094421386719	-369.2039794921876	767.3834838867189	-784.1265258789065	-338.3766784667969	708.9244995117189	-773.071228027344	-303.9873046875001	707.4186401367189	-772.4182128906252	-368.3128051757813	635.5345458984376	-790.8073730468752	-365.9507751464844	566.1618041992189	-785.9685058593752	-315.0130920410157	541.9802856445314	-907.3054199218752	-303.8668212890626	434.2849121093751	-783.8485107421877	-362.8430175781251	351.1815185546876	-751.3456420898439	-317.1274414062501	350.0397033691407	-764.9782104492189	-302.3643188476563	303.6034545898438	-798.418395996094	-354.4606933593751	120.3035507202149	-749.3019409179689	-317.2302856445313	125.5241470336914	-834.7064208984377	-407.8618164062501	83.6345672607422	-807.3848876953127	-184.67138671875	63.75447463989259	-780.3057250976565	-192.5652770996094	63.06779098510744	-742.5734863281251	-214.5343322753907	42.7966651916504	-697.6083984375001	-360.0605468750001	1756.26953125	-1119.877319335938	
1384	6.915	-212.7244110107422	1855.486572265625	-1050.698364257813	-366.0913696289063	1752.870483398438	-972.807800292969	-414.0657043457032	1606.623901367188	-1050.327880859375	-424.7903747558595	1278.613403320313	-1005.223449707031	-250.2213745117188	1564.212280273438	-1046.16357421875	-289.2559204101563	1591.869873046875	-1218.07763671875	-129.9080505371094	1556.991943359375	-1326.6376953125	-102.4123458862305	1590.447875976563	-1301.13623046875	-62.40064620971681	1563.08740234375	-1337.180419921875	1.975180625915528	1578.98583984375	-1334.745483398438	15.67583084106446	1510.435668945313	-1310.761596679688	291.9493713378907	1642.1123046875	-1228.05029296875	295.7178955078126	1641.501953125	-1307.88818359375	391.6943664550782	1667.61083984375	-1242.497192382813	-277.2256469726563	1615.52880859375	-887.1000976562502	-128.0628814697266	1583.146728515625	-763.8771362304689	-99.6546325683594	1610.253662109375	-795.1445312500002	-58.45800781250001	1585.9384765625	-756.8201293945314	8.704700469970705	1592.83544921875	-763.4895629882814	16.34070014953614	1518.809936523438	-787.2496337890627	nan	nan	nan	302.3724670410157	1636.73291015625	-802.1950683593752	382.1373901367188	1652.424072265625	-886.4436035156252	-254.1473236083985	1058.148193359375	-1127.776733398438	-243.8421173095704	1095.6611328125	-846.884704589844	-440.6302490234376	1179.894409179688	-990.6743164062502	-450.8790588378907	1149.665771484375	-1017.970458984375	-451.300750732422	1149.655883789063	-962.211853027344	-347.8739013671876	855.9260864257815	-1169.29296875	-327.9782104492188	774.295837402344	-1167.876098632813	-278.4718933105469	770.6802978515627	-1167.924438476563	-357.8831481933594	727.0350952148439	-1144.71533203125	-344.5900878906251	578.0818481445314	-1121.26953125	-319.0924682617188	557.0144042968751	-988.8961181640627	-294.9252929687501	360.5577697753907	-1059.347534179688	-333.3140258789063	313.9421386718751	-1125.958618164063	-297.4812316894532	313.9360046386719	-1096.159545898438	-293.5391845703126	235.2955932617188	-1065.473876953125	-348.9419860839844	109.8018875122071	-1099.992919921875	-397.1385803222657	81.27204895019533	-1045.575805664063	-188.22021484375	59.88846588134767	-1026.073364257813	-182.7924346923828	57.32475662231447	-1068.74609375	-313.0606079101563	127.1807022094727	-1020.07958984375	-369.0494079589844	767.3418579101564	-783.750183105469	-338.1381530761719	708.9147949218751	-772.6743774414065	-303.8075256347657	707.3386230468751	-772.0971679687502	-368.2333374023438	635.4674072265626	-790.4228515625002	-366.0452575683594	566.0615844726564	-785.6510009765627	-315.2542724609376	541.7525634765626	-907.0401611328127	-303.9735412597657	434.1231994628907	-783.6311645507815	-362.8479003906251	351.0686645507813	-751.1290283203126	-317.1384887695313	349.9429321289063	-764.7894897460939	-302.3787841796876	303.4663696289063	-798.292175292969	-354.4695739746094	120.2319641113282	-749.2067871093751	-317.3724975585938	125.5026245117188	-834.6087646484377	-407.8746032714845	83.64994049072267	-807.3616333007815	-184.6448669433594	63.76443481445314	-780.226989746094	-192.5511932373047	63.04228591918947	-742.5040893554689	-214.536849975586	42.87781524658204	-697.5953979492189	-360.0324401855469	1756.12158203125	-1119.23974609375	
